Coordinates
version=1
nRows=24
nColumns=22
inDegrees=yes

Units are S.I. units (second, meters, Newtons, ...)
If the header above contains a line with 'inDegrees', this indicates whether rotational values are in degrees (yes) or radians (no).

endheader
time	pelvis_tilt	pelvis_list	pelvis_rotation	pelvis_tx	pelvis_ty	pelvis_tz	hip_flexion_r	hip_adduction_r	hip_rotation_r	knee_angle_r	ankle_angle_r	subtalar_angle_r	hip_flexion_l	hip_adduction_l	hip_rotation_l	knee_angle_l	ankle_angle_l	subtalar_angle_l	lumbar_extension	lumbar_bending	lumbar_rotation
      1.81000000	     -2.99621763	     -0.93682160	    128.58870247	     -0.47728832	      1.06003354	      0.74652340	     -8.14897585	      8.08674861	     10.89579201	    -14.58189981	     16.68706291	    -12.41473228	     21.53193384	     -2.63484181	      3.43594103	    -16.33725509	      7.83551901	      9.60230870	     -4.81919853	     -3.33448595	      0.95377764
      1.82000000	     -3.28989684	     -1.15713380	    127.75264668	     -0.48284766	      1.05887802	      0.73962767	     -8.40927149	      7.58687199	     11.31405032	    -15.16877016	     17.06838356	    -12.50931977	     21.18214548	     -2.06207640	      4.60090533	    -14.36888515	      7.94297603	     10.74650324	     -4.77915982	     -3.69404257	      0.98578516
      1.83000000	     -3.56294257	     -1.34615639	    126.93438105	     -0.48844498	      1.05769457	      0.73254909	     -8.67123738	      7.12153833	     11.71595553	    -15.76969083	     17.39249568	    -12.59522405	     20.83834731	     -1.55478746	      5.83060424	    -12.70561618	      8.01475649	     11.73386116	     -4.72433574	     -4.02351234	      1.00982619
      1.84000000	     -3.81903926	     -1.50525655	    126.14098097	     -0.49410331	      1.05650617	      0.72530507	     -8.93306118	      6.68648812	     12.10058838	    -16.39440335	     17.66573946	    -12.65673849	     20.51922423	     -1.09390901	      7.05166712	    -11.40433963	      8.05413387	     12.56154467	     -4.65612306	     -4.32127038	      1.02427954
      1.85000000	     -4.06012776	     -1.64178000	    125.37392561	     -0.49981699	      1.05532835	      0.71790706	     -9.17610310	      6.27720295	     12.45694240	    -17.07007631	     17.87275568	    -12.67280568	     20.24938333	     -0.65487420	      8.21652528	    -10.51481848	      8.04888401	     13.21555649	     -4.57276013	     -4.59815062	      1.04554714
      1.86000000	     -4.27901839	     -1.73968570	    124.63605578	     -0.50562591	      1.05420659	      0.71035712	     -9.42650282	      5.90932305	     12.83581841	    -17.77311832	     18.03803127	    -12.61886677	     20.01169725	     -0.23600842	      9.29451296	    -10.02620523	      8.02244151	     13.75084240	     -4.48417987	     -4.82539185	      1.05218727
      1.87000000	     -4.48462273	     -1.81903345	    123.92520038	     -0.51149852	      1.05314495	      0.70264227	     -9.65051251	      5.56717288	     13.19990726	    -18.54455737	     18.14184601	    -12.47812804	     19.81580293	      0.19286274	     10.29214031	     -9.92721561	      7.94675387	     14.09987498	     -4.37869352	     -5.03478855	      1.05467031
      1.88000000	     -4.65424279	     -1.88392273	    123.23864500	     -0.51743865	      1.05215318	      0.69476608	     -9.84144754	      5.27066588	     13.59529760	    -19.36593142	     18.18392857	    -12.31752659	     19.66045579	      0.62069479	     11.25730811	    -10.16419737	      7.77958811	     14.24337166	     -4.23913844	     -5.20461908	      1.06363880
      1.89000000	     -4.85539968	     -1.90470474	    122.57347922	     -0.52349994	      1.05136099	      0.68671886	    -10.03777025	      4.96829550	     13.92241767	    -20.28596177	     18.13216724	    -11.81055900	     19.45140297	      1.08877118	     12.19244721	    -10.65704075	      7.55673364	     14.23741275	     -4.13851604	     -5.37236529	      1.06982419
      1.90000000	     -5.02431689	     -1.92959808	    121.91910746	     -0.52958243	      1.05068551	      0.67849807	    -10.16491146	      4.70093438	     14.25772508	    -21.28921677	     17.97401959	    -11.25428971	     19.25966246	      1.55792938	     13.17144714	    -11.33992546	      7.15863261	     13.96514312	     -3.99186606	     -5.51983596	      1.08662503
      1.91000000	     -5.18756917	     -1.94779817	    121.26622082	     -0.53567776	      1.05020154	      0.67010286	    -10.23028155	      4.44781843	     14.56564202	    -22.40176855	     17.68221855	    -10.53022057	     19.04528915	      2.03091945	     14.18874399	    -12.13801137	      6.61086712	     13.46492786	     -3.83025370	     -5.66230037	      1.11088648
      1.92000000	     -5.34701583	     -1.96268620	    120.60250850	     -0.54174189	      1.04993945	      0.66153778	    -10.21838117	      4.20497532	     14.84116518	    -23.63908981	     17.22653680	     -9.62356756	     18.81161047	      2.49325809	     15.20162127	    -13.00191291	      5.95493285	     12.77376937	     -3.65448863	     -5.80500236	      1.15153639
      1.93000000	     -5.50485929	     -1.97451282	    119.91556143	     -0.54771335	      1.04992090	      0.65280324	    -10.10705055	      3.97109919	     15.06778265	    -25.03052247	     16.58075369	     -8.52005494	     18.56292185	      2.92377067	     16.12294574	    -13.89421993	      5.26367153	     11.96400165	     -3.47043185	     -5.95371659	      1.20092072
      1.94000000	     -5.65407987	     -1.97229553	    119.20138669	     -0.55357359	      1.05015809	      0.64389803	     -9.89538624	      3.75654110	     15.24156859	    -26.57628848	     15.68877469	     -7.18293386	     18.30785184	      3.29414730	     16.84999360	    -14.80889729	      4.66874294	     11.10134932	     -3.28559840	     -6.09255218	      1.26732858
      1.95000000	     -5.79258815	     -1.95274819	    118.45744069	     -0.55926383	      1.05063730	      0.63484497	     -9.56285957	      3.56423773	     15.33949123	    -28.29783715	     14.54712533	     -5.59860396	     18.04024110	      3.58359544	     17.31850240	    -15.71359969	      4.25986028	     10.29228227	     -3.11145338	     -6.22136575	      1.31854206
      1.96000000	     -5.92114373	     -1.92307524	    117.67434747	     -0.56475072	      1.05133315	      0.62569107	     -9.08808133	      3.38409943	     15.35484675	    -30.19906833	     13.15473349	     -3.77243573	     17.75082389	      3.78778621	     17.51271586	    -16.56669912	      4.04352619	      9.62701104	     -2.94847334	     -6.34223958	      1.37989043
      1.97000000	     -6.04341594	     -1.88678990	    116.84664499	     -0.56999986	      1.05221301	      0.61648727	     -8.45755139	      3.20476785	     15.28080605	    -32.27280557	     11.50179082	     -1.71390015	     17.41461263	      3.90945932	     17.44626796	    -17.31624735	      4.05452089	      9.10941702	     -2.80420960	     -6.45939820	      1.43211802
      1.98000000	     -6.17134298	     -1.85609779	    115.96245534	     -0.57497698	      1.05323467	      0.60729949	     -7.65669929	      3.00048248	     15.11969415	    -34.50103552	      9.61508419	      0.50549703	     17.01040709	      3.96653254	     17.13850254	    -17.90996230	      4.26526631	      8.71964463	     -2.68181423	     -6.58983110	      1.47693737
      1.99000000	     -6.31724599	     -1.84283355	    115.01876709	     -0.57968471	      1.05434918	      0.59821589	     -6.67672382	      2.74474217	     14.87426678	    -36.85514852	      7.56266542	      2.78891298	     16.52335567	      3.98410376	     16.60790163	    -18.30441079	      4.62877483	      8.41835890	     -2.58451448	     -6.74399951	      1.51316263
      2.00000000	     -6.49556530	     -1.85396946	    114.02651512	     -0.58410340	      1.05550587	      0.58930183	     -5.52668136	      2.41873422	     14.54815510	    -39.28533152	      5.43846031	      4.99487193	     15.94809929	      3.99140636	     15.88730919	    -18.48309354	      5.08541179	      8.17250170	     -2.52239652	     -6.94412281	      1.51056467
      2.01000000	     -6.71876686	     -1.89177265	    112.98239709	     -0.58824328	      1.05666149	      0.58060468	     -4.21992385	      2.00368715	     14.15747642	    -41.74598496	      3.40560799	      6.94034281	     15.28109882	      4.01114568	     14.97295002	    -18.43666970	      5.58460146	      7.95431147	     -2.49751373	     -7.19950972	      1.48304683
      2.02000000	     -6.97004265	     -1.94599265	    111.93813239	     -0.59217915	      1.05781372	      0.57217916	     -2.78837295	      1.52608827	     13.69800369	    -44.16833705	      1.57210583	      8.58993043	     14.52373430	      4.05378817	     13.98439886	    -18.16615749	      6.02602426	      7.74709277	     -2.51769928	     -7.48175103	      1.36991020
      2.03000000	     -7.27517834	     -2.01118236	    110.87756859	     -0.59591413	      1.05890909	      0.56400431	     -1.26681670	      0.96138382	     13.19962550	    -46.51989607	      0.19080045	      9.73426358	     13.69304449	      4.15071678	     12.87691974	    -17.73209643	      6.48215406	      7.53153896	     -2.58985351	     -7.81632916	      1.19585792
      2.04000000	     -7.60061391	     -2.06430056	    109.84690986	     -0.59950283	      1.05998575	      0.55609256	      0.30405085	      0.36187081	     12.66209249	    -48.74444855	     -0.68883913	     10.40721324	     12.79519929	      4.28832310	     11.79065244	    -17.16120926	      6.84947209	      7.31736625	     -2.72225724	     -8.15794415	      0.93846123
